<?xml version="1.0" standalone="no"?>
<!DOCTYPE svg PUBLIC "-//W3C//DTD SVG 20010904//EN"
 "http://www.w3.org/TR/2001/REC-SVG-20010904/DTD/svg10.dtd">
<svg version="1.0" xmlns="http://www.w3.org/2000/svg"
 width="200.000000pt" height="200.000000pt" viewBox="0 0 200.000000 200.000000"
 preserveAspectRatio="xMidYMid meet">
<metadata>
Created by potrace 1.14, written by Peter Selinger 2001-2017
</metadata>
<g transform="translate(0.000000,200.000000) scale(0.100000,-0.100000)"
fill="#000000" stroke="none">
<path d="M480 1005 l0 -95 33 0 c52 0 69 19 75 83 6 77 -13 107 -68 107 l-40
0 0 -95z m68 6 c2 -36 -1 -57 -9 -62 -23 -14 -29 1 -29 62 0 52 2 60 18 57 13
-2 18 -15 20 -57z"/>
<path d="M610 1070 c0 -20 5 -30 15 -30 10 0 15 10 15 30 0 20 -5 30 -15 30
-10 0 -15 -10 -15 -30z"/>
<path d="M660 1005 l0 -95 51 0 c43 0 50 3 47 18 -2 12 -11 16 -31 14 l-27 -3
0 80 c0 74 -2 81 -20 81 -19 0 -20 -7 -20 -95z"/>
<path d="M770 1022 c0 -85 14 -112 58 -112 40 0 52 25 52 111 0 71 -2 80 -17
77 -15 -3 -18 -15 -19 -76 -1 -40 -4 -76 -7 -79 -17 -16 -27 16 -27 83 0 67
-2 74 -20 74 -18 0 -20 -7 -20 -78z"/>
<path d="M944 1075 c-21 -32 -11 -59 32 -86 34 -21 40 -39 15 -47 -7 -2 -15 5
-18 17 -6 22 -27 28 -38 11 -4 -6 1 -22 9 -35 21 -31 70 -34 86 -6 19 36 12
61 -25 82 -20 12 -35 29 -35 40 0 25 30 25 37 -1 7 -28 33 -25 33 3 0 51 -67
66 -96 22z"/>
<path d="M1050 1085 c0 -8 9 -15 20 -15 18 0 20 -7 20 -80 0 -64 3 -80 15 -80
12 0 15 16 15 80 0 73 2 80 20 80 11 0 20 7 20 15 0 12 -13 15 -55 15 -42 0
-55 -3 -55 -15z"/>
<path d="M1182 1088 c-15 -15 -16 -132 -2 -159 15 -27 64 -25 84 3 10 13 16
43 16 73 0 62 -20 95 -59 95 -15 0 -32 -5 -39 -12z m56 -80 c-2 -48 -7 -63
-18 -63 -11 0 -16 13 -18 49 -4 58 2 76 23 76 13 0 15 -11 13 -62z"/>
<path d="M1300 1005 c0 -78 3 -95 15 -95 11 0 15 11 15 40 0 33 3 40 20 40 17
0 20 -7 20 -40 0 -33 3 -40 20 -40 16 0 20 7 20 33 0 17 -4 38 -9 46 -5 7 -4
25 2 42 15 40 -12 69 -65 69 l-38 0 0 -95z m69 52 c13 -16 5 -27 -21 -27 -11
0 -18 7 -18 20 0 23 22 27 39 7z"/>
<path d="M1430 1005 l0 -95 45 0 c51 0 66 26 18 32 -20 2 -29 9 -31 26 -3 19
1 22 28 22 25 0 31 4 28 18 -2 10 -13 17 -28 17 -18 0 -26 6 -28 23 -3 19 1
22 27 22 21 0 31 5 31 15 0 11 -12 15 -45 15 l-45 0 0 -95z"/>
<path d="M1327 873 c-4 -3 -7 -11 -7 -17 0 -6 5 -5 12 2 20 20 28 13 16 -13
-6 -14 -21 -31 -32 -39 -12 -7 -45 -32 -75 -56 -60 -47 -57 -60 16 -60 58 0
64 18 7 22 l-47 3 66 50 c59 45 87 79 87 105 0 11 -33 13 -43 3z"/>
<path d="M1376 795 c25 -19 40 -19 24 0 -7 8 -20 15 -28 15 -13 0 -12 -3 4
-15z"/>
<path d="M1443 749 c15 -11 25 -25 21 -30 -3 -5 -34 -9 -69 -9 -38 0 -67 -5
-71 -12 -5 -8 9 -9 56 -5 35 4 74 7 86 7 33 0 30 24 -5 49 -38 27 -55 27 -18
0z"/>
</g>
</svg>
